<svg xmlns="http://www.w3.org/2000/svg" viewBox="0 0 120 120"><!-- Category icon: Drinks / faluda glass (original) -->
  <circle cx="60" cy="60" r="56" fill="#FBE4EC"/>
  <defs><clipPath id="glass"><path d="M38 36h44l-7 66H45z"/></clipPath></defs>
  <g clip-path="url(#glass)">
    <rect x="30" y="36" width="60" height="70" fill="#FFF7FA"/>
    <rect x="30" y="50" width="60" height="22" fill="#F6B3C8"/>
    <rect x="30" y="72" width="60" height="16" fill="#F08BAE"/>
    <rect x="30" y="88" width="60" height="18" fill="#E0567F"/>
    <g fill="#C0392B"><rect x="48" y="90" width="7" height="7" rx="1.5"/><rect x="62" y="94" width="7" height="7" rx="1.5"/></g>
    <rect x="55" y="96" width="6" height="6" rx="1.5" fill="#5E9B42"/>
    <g fill="#2B1D14"><circle cx="50" cy="78" r="1.3"/><circle cx="58" cy="82" r="1.3"/><circle cx="66" cy="76" r="1.3"/><circle cx="70" cy="84" r="1.3"/></g>
  </g>
  <path d="M38 36h44l-7 66H45z" fill="none" stroke="#D7A3B5" stroke-width="2.5" stroke-linejoin="round"/>
  <rect x="70" y="14" width="5" height="44" rx="2.5" fill="#3E6B2F" transform="rotate(18 72 36)"/>
  <circle cx="60" cy="38" r="13" fill="#FFF3DC"/><circle cx="55" cy="35" r="3" fill="#FFFFFF"/>
  <circle cx="64" cy="27" r="3.5" fill="#C0392B"/>
</svg>
